<?xml version="1.0" encoding="UTF-8"?>
<!DOCTYPE svg PUBLIC "-//W3C//DTD SVG 1.1//EN" "http://www.w3.org/Graphics/SVG/1.1/DTD/svg11.dtd">
<svg xmlns="http://www.w3.org/2000/svg" version="1.1" width="1192px" height="512px" style="shape-rendering:geometricPrecision; text-rendering:geometricPrecision; image-rendering:optimizeQuality; fill-rule:evenodd; clip-rule:evenodd" xmlns:xlink="http://www.w3.org/1999/xlink">
<g><path style="opacity:1" fill="#04080a" d="M -0.5,-0.5 C 396.833,-0.5 794.167,-0.5 1191.5,-0.5C 1191.5,170.167 1191.5,340.833 1191.5,511.5C 794.167,511.5 396.833,511.5 -0.5,511.5C -0.5,340.833 -0.5,170.167 -0.5,-0.5 Z"/></g>
<g><path style="opacity:1" fill="#b99035" d="M 471.5,169.5 C 466.427,172.03 461.094,174.03 455.5,175.5C 460.244,172.138 465.577,170.138 471.5,169.5 Z"/></g>
<g><path style="opacity:1" fill="#d0a143" d="M 455.5,175.5 C 454.203,179.158 451.537,180.824 447.5,180.5C 449.629,178.05 452.296,176.383 455.5,175.5 Z"/></g>
<g><path style="opacity:1" fill="#b98b3a" d="M 494.5,167.5 C 494.5,177.167 494.5,186.833 494.5,196.5C 484.167,196.5 473.833,196.5 463.5,196.5C 463.5,196.167 463.5,195.833 463.5,195.5C 473.22,195.808 482.887,195.474 492.5,194.5C 493.498,186.193 493.831,177.86 493.5,169.5C 486.167,169.5 478.833,169.5 471.5,169.5C 478.937,167.868 486.604,167.201 494.5,167.5 Z"/></g>
<g><path style="opacity:1" fill="#d0a038" d="M 439.5,186.5 C 437.146,191.225 434.313,195.558 431,199.5C 430.184,200.823 429.017,201.489 427.5,201.5C 430.301,195.579 434.301,190.579 439.5,186.5 Z"/></g>
<g><path style="opacity:1" fill="#f9b011" d="M 471.5,169.5 C 478.833,169.5 486.167,169.5 493.5,169.5C 493.831,177.86 493.498,186.193 492.5,194.5C 482.887,195.474 473.22,195.808 463.5,195.5C 463.5,195.833 463.5,196.167 463.5,196.5C 455.695,200.403 449.029,205.737 443.5,212.5C 436.5,212.5 429.5,212.5 422.5,212.5C 424.609,209.125 426.276,205.458 427.5,201.5C 429.017,201.489 430.184,200.823 431,199.5C 434.313,195.558 437.146,191.225 439.5,186.5C 441.8,184.016 444.467,182.016 447.5,180.5C 451.537,180.824 454.203,179.158 455.5,175.5C 461.094,174.03 466.427,172.03 471.5,169.5 Z"/></g>
<g><path style="opacity:1" fill="#fbaa08" d="M 463.5,195.5 C 460.211,194.59 456.878,193.59 453.5,192.5C 455.766,191.686 458.1,191.186 460.5,191C 459.833,189.667 459.167,188.333 458.5,187C 459.667,186.5 460.5,185.667 461,184.5C 463.324,185.807 464.657,187.807 465,190.5C 469.106,186.942 468.939,184.276 464.5,182.5C 468.814,181.96 472.981,180.96 477,179.5C 477.945,179.905 478.612,180.572 479,181.5C 480.09,178.99 481.257,176.49 482.5,174C 482.167,173.667 481.833,173.333 481.5,173C 485.969,170.377 489.469,171.21 492,175.5C 492.894,181.997 492.394,188.33 490.5,194.5C 481.318,194.173 472.318,194.507 463.5,195.5 Z"/></g>
<g><path style="opacity:1" fill="#f8f8f9" d="M 855.5,283.5 C 851.595,292.569 844.928,298.736 835.5,302C 825.54,303.462 815.54,303.795 805.5,303C 798.851,301.26 793.017,298.093 788,293.5C 788.565,295.965 789.732,298.298 791.5,300.5C 783.862,301.497 776.196,301.831 768.5,301.5C 766.2,294.063 763.2,286.896 759.5,280C 745.155,279.167 730.822,279.334 716.5,280.5C 713.562,287.314 711.229,294.314 709.5,301.5C 701.493,301.666 693.493,301.5 685.5,301C 682.652,294.133 679.652,287.3 676.5,280.5C 661.167,279.167 645.833,279.167 630.5,280.5C 627.296,287.234 624.963,294.234 623.5,301.5C 615.5,301.5 607.5,301.5 599.5,301.5C 602.476,294.207 605.476,286.874 608.5,279.5C 619.742,254.675 630.742,229.675 641.5,204.5C 650.167,204.5 658.833,204.5 667.5,204.5C 677.002,227.011 686.668,249.511 696.5,272C 697.483,272.591 698.15,272.257 698.5,271C 707.362,249.443 716.362,227.943 725.5,206.5C 733.5,205.167 741.5,205.167 749.5,206.5C 759.127,228.429 768.793,250.429 778.5,272.5C 785.476,273.331 792.476,273.831 799.5,274C 805.795,284.083 814.795,287.416 826.5,284C 833.74,281.359 835.906,276.525 833,269.5C 830.079,267.288 826.912,265.455 823.5,264C 811.253,260.697 799.586,256.031 788.5,250C 774.854,235.6 775.188,221.6 789.5,208C 792.554,205.806 795.888,204.139 799.5,203C 813.151,200.3 826.484,201.3 839.5,206C 848.101,211.112 853.435,218.612 855.5,228.5C 847.463,229.6 839.463,229.267 831.5,227.5C 830.699,224.867 829.033,223.033 826.5,222C 818.755,218.895 811.088,218.895 803.5,222C 800.793,223.864 799.959,226.364 801,229.5C 802.25,232.171 804.083,234.337 806.5,236C 816.707,239.104 826.707,242.77 836.5,247C 853.084,253.768 859.418,265.935 855.5,283.5 Z"/></g>
<g><path style="opacity:1" fill="#030405" d="M 494.5,167.5 C 496.369,169.635 497.036,172.302 496.5,175.5C 497.5,175.5 498.5,175.5 499.5,175.5C 499.5,180.833 499.5,186.167 499.5,191.5C 500.833,191.5 502.167,191.5 503.5,191.5C 503.817,194.572 503.484,197.572 502.5,200.5C 501.833,200.167 501.167,199.833 500.5,199.5C 499.636,201.197 498.303,202.363 496.5,203C 498.433,203.783 499.933,203.283 501,201.5C 501.75,202.126 502.584,202.626 503.5,203C 500.833,204 500.833,205 503.5,206C 502.833,206.333 502.167,206.667 501.5,207C 504.833,207.333 508.167,207.667 511.5,208C 512.274,210.405 512.774,212.905 513,215.5C 513.334,212.234 513.501,209.234 513.5,206.5C 514.167,236.664 514.833,266.664 515.5,296.5C 515.5,298.167 515.5,299.833 515.5,301.5C 529.171,301.667 542.837,301.5 556.5,301C 577.921,300.817 592.588,290.984 600.5,271.5C 602.113,271.056 603.28,270.056 604,268.5C 604.333,269.5 604.667,270.5 605,271.5C 605.333,269.5 605.667,267.5 606,265.5C 607.167,267.333 608.333,269.167 609.5,271C 608.285,273.096 607.451,272.929 607,270.5C 606.833,271.333 606.667,272.167 606.5,273C 608.176,274.114 608.843,276.281 608.5,279.5C 605.476,286.874 602.476,294.207 599.5,301.5C 607.5,301.5 615.5,301.5 623.5,301.5C 624.963,294.234 627.296,287.234 630.5,280.5C 645.833,279.167 661.167,279.167 676.5,280.5C 679.652,287.3 682.652,294.133 685.5,301C 693.493,301.5 701.493,301.666 709.5,301.5C 711.229,294.314 713.562,287.314 716.5,280.5C 730.822,279.334 745.155,279.167 759.5,280C 763.2,286.896 766.2,294.063 768.5,301.5C 776.196,301.831 783.862,301.497 791.5,300.5C 789.732,298.298 788.565,295.965 788,293.5C 793.017,298.093 798.851,301.26 805.5,303C 815.54,303.795 825.54,303.462 835.5,302C 844.928,298.736 851.595,292.569 855.5,283.5C 856.186,284.848 857.186,286.015 858.5,287C 853.341,319.465 835.008,340.799 803.5,351C 792.806,351.988 782.139,353.155 771.5,354.5C 672.838,353.528 574.171,353.195 475.5,353.5C 470.611,353.444 465.944,352.444 461.5,350.5C 452.867,346.689 445.534,341.189 439.5,334C 440.416,333.722 441.082,333.222 441.5,332.5C 443.368,331.737 445.035,330.737 446.5,329.5C 446.833,329.5 447.167,329.5 447.5,329.5C 451.201,327.443 454.868,325.443 458.5,323.5C 455.019,320.591 451.352,317.925 447.5,315.5C 445.587,311.738 443.421,308.071 441,304.5C 439.989,303.663 438.822,303.33 437.5,303.5C 438.167,302.833 438.833,302.167 439.5,301.5C 440.499,296.995 440.499,292.328 439.5,287.5C 438.5,287.5 437.5,287.5 436.5,287.5C 436.333,270.163 436.5,252.83 437,235.5C 438.989,231.747 439.822,227.747 439.5,223.5C 439.5,222.167 439.5,220.833 439.5,219.5C 440.167,218.833 440.833,218.167 441.5,217.5C 442.404,216.791 442.737,215.791 442.5,214.5C 443.167,214.5 443.5,214.167 443.5,213.5C 443.5,213.167 443.5,212.833 443.5,212.5C 449.029,205.737 455.695,200.403 463.5,196.5C 473.833,196.5 484.167,196.5 494.5,196.5C 494.5,186.833 494.5,177.167 494.5,167.5 Z"/></g>
<g><path style="opacity:1" fill="#fdfdfd" d="M 498.5,205.5 C 498.5,237.5 498.5,269.5 498.5,301.5C 490.833,301.5 483.167,301.5 475.5,301.5C 475.5,269.5 475.5,237.5 475.5,205.5C 483.167,205.5 490.833,205.5 498.5,205.5 Z"/></g>
<g><path style="opacity:1" fill="#fafafa" d="M 600.5,271.5 C 592.588,290.984 577.921,300.817 556.5,301C 542.837,301.5 529.171,301.667 515.5,301.5C 515.5,299.833 515.5,298.167 515.5,296.5C 515.5,266.167 515.5,235.833 515.5,205.5C 530.17,205.333 544.837,205.5 559.5,206C 587.388,209.053 602.055,224.553 603.5,252.5C 603.47,259.011 602.47,265.344 600.5,271.5 Z"/></g>
<g><path style="opacity:1" fill="#c8a33a" d="M 427.5,201.5 C 426.276,205.458 424.609,209.125 422.5,212.5C 429.5,212.5 436.5,212.5 443.5,212.5C 443.5,212.833 443.5,213.167 443.5,213.5C 435.833,213.5 428.167,213.5 420.5,213.5C 420.491,211.692 420.991,210.025 422,208.5C 423.371,205.734 425.204,203.401 427.5,201.5 Z"/></g>
<g><path style="opacity:1" fill="#145960" d="M 419.5,215.5 C 426.982,214.508 434.648,214.175 442.5,214.5C 442.737,215.791 442.404,216.791 441.5,217.5C 434.576,215.537 427.243,214.87 419.5,215.5 Z"/></g>
<g><path style="opacity:1" fill="#606261" d="M 498.5,205.5 C 490.833,205.5 483.167,205.5 475.5,205.5C 475.5,237.5 475.5,269.5 475.5,301.5C 474.502,269.338 474.168,237.004 474.5,204.5C 482.684,204.174 490.684,204.508 498.5,205.5 Z"/></g>
<g><path style="opacity:1" fill="#4f5050" d="M 553.5,226.5 C 548.5,226.5 543.5,226.5 538.5,226.5C 538.5,244.5 538.5,262.5 538.5,280.5C 542.833,280.5 547.167,280.5 551.5,280.5C 547.03,281.486 542.363,281.819 537.5,281.5C 537.5,262.833 537.5,244.167 537.5,225.5C 543.026,225.179 548.36,225.512 553.5,226.5 Z"/></g>
<g><path style="opacity:1" fill="#13effb" d="M 439.5,219.5 C 439.5,220.833 439.5,222.167 439.5,223.5C 437.195,229.169 435.695,235.169 435,241.5C 434.267,256.851 434.434,272.185 435.5,287.5C 433.866,282.563 432.866,277.229 432.5,271.5C 431.52,274.086 431.187,276.753 431.5,279.5C 428.167,279.5 424.833,279.5 421.5,279.5C 421.156,271.418 420.156,263.418 418.5,255.5C 417.914,255.709 417.414,256.043 417,256.5C 416.168,247.814 416.335,239.147 417.5,230.5C 418.761,227.275 420.094,224.108 421.5,221C 420.852,219.56 420.519,218.06 420.5,216.5C 426.833,216.5 433.167,216.5 439.5,216.5C 439.5,217.5 439.5,218.5 439.5,219.5 Z"/></g>
<g><path style="opacity:1" fill="#06090a" d="M 553.5,226.5 C 568.485,226.295 577.818,233.295 581.5,247.5C 581.676,252.88 581.342,258.213 580.5,263.5C 574.776,275.54 565.11,281.206 551.5,280.5C 547.167,280.5 542.833,280.5 538.5,280.5C 538.5,262.5 538.5,244.5 538.5,226.5C 543.5,226.5 548.5,226.5 553.5,226.5 Z"/></g>
<g><path style="opacity:1" fill="#101010" d="M 751.5,259.5 C 747.386,260.826 742.886,261.493 738,261.5C 733.32,261.499 728.82,261.166 724.5,260.5C 728.279,249.609 732.612,238.942 737.5,228.5C 739.485,230.457 740.985,232.79 742,235.5C 745.072,243.552 748.239,251.552 751.5,259.5 Z"/></g>
<g><path style="opacity:1" fill="#0a2b36" d="M 439.5,223.5 C 439.822,227.747 438.989,231.747 437,235.5C 436.5,252.83 436.333,270.163 436.5,287.5C 437.5,287.5 438.5,287.5 439.5,287.5C 440.499,292.328 440.499,296.995 439.5,301.5C 439.768,299.901 439.434,298.568 438.5,297.5C 438.091,293.944 437.091,290.611 435.5,287.5C 434.434,272.185 434.267,256.851 435,241.5C 435.695,235.169 437.195,229.169 439.5,223.5 Z"/></g>
<g><path style="opacity:1" fill="#0f0f10" d="M 653.5,226.5 C 654.458,226.953 655.292,227.619 656,228.5C 660.224,239.282 664.724,249.949 669.5,260.5C 659.5,261.833 649.5,261.833 639.5,260.5C 644.174,249.101 648.84,237.767 653.5,226.5 Z"/></g>
<g><path style="opacity:1" fill="#b4b4b4" d="M 581.5,247.5 C 582.648,251.981 582.815,256.648 582,261.5C 581.722,262.416 581.222,263.082 580.5,263.5C 581.342,258.213 581.676,252.88 581.5,247.5 Z"/></g>
<g><path style="opacity:1" fill="#22e4f5" d="M 419.5,215.5 C 427.243,214.87 434.576,215.537 441.5,217.5C 440.833,218.167 440.167,218.833 439.5,219.5C 439.5,218.5 439.5,217.5 439.5,216.5C 433.167,216.5 426.833,216.5 420.5,216.5C 420.519,218.06 420.852,219.56 421.5,221C 420.094,224.108 418.761,227.275 417.5,230.5C 416.335,239.147 416.168,247.814 417,256.5C 417.414,256.043 417.914,255.709 418.5,255.5C 420.156,263.418 421.156,271.418 421.5,279.5C 424.833,279.5 428.167,279.5 431.5,279.5C 431.187,276.753 431.52,274.086 432.5,271.5C 432.866,277.229 433.866,282.563 435.5,287.5C 437.091,290.611 438.091,293.944 438.5,297.5C 438.5,298.5 438.5,299.5 438.5,300.5C 431.5,300.5 424.5,300.5 417.5,300.5C 416.679,297.359 416.179,294.025 416,290.5C 415.333,268.833 415.333,247.167 416,225.5C 416.986,221.996 418.153,218.663 419.5,215.5 Z"/></g>
<g><path style="opacity:1" fill="#b4b4b4" d="M 751.5,259.5 C 752.404,260.209 752.737,261.209 752.5,262.5C 742.81,262.832 733.144,262.498 723.5,261.5C 723.624,260.893 723.957,260.56 724.5,260.5C 728.82,261.166 733.32,261.499 738,261.5C 742.886,261.493 747.386,260.826 751.5,259.5 Z"/></g>
<g><path style="opacity:1" fill="#2e858c" d="M 407.5,301.5 C 402.695,302.487 397.695,302.821 392.5,302.5C 392.5,272.5 392.5,242.5 392.5,212.5C 397.833,212.5 403.167,212.5 408.5,212.5C 408.831,242.338 408.498,272.005 407.5,301.5 Z"/></g>
<g><path style="opacity:1" fill="#27eff4" d="M 407.5,287.5 C 407.5,292.167 407.5,296.833 407.5,301.5C 402.833,301.5 398.167,301.5 393.5,301.5C 393.5,274.833 393.5,248.167 393.5,221.5C 394.468,219.393 394.802,217.059 394.5,214.5C 398.064,214.151 401.398,214.817 404.5,216.5C 402.293,217.635 399.96,218.301 397.5,218.5C 397.5,219.5 397.5,220.5 397.5,221.5C 400.247,221.187 402.914,221.52 405.5,222.5C 404.271,223.281 402.938,223.781 401.5,224C 400.941,224.725 400.608,225.558 400.5,226.5C 401.468,241.471 401.802,256.471 401.5,271.5C 400.167,271.5 398.833,271.5 397.5,271.5C 397.344,277.572 396.677,283.572 395.5,289.5C 395.709,290.086 396.043,290.586 396.5,291C 399.817,291.498 403.15,291.665 406.5,291.5C 406.232,289.901 406.566,288.568 407.5,287.5 Z"/></g>
<g><path style="opacity:1" fill="#1debf9" d="M 407.5,287.5 C 406.566,288.568 406.232,289.901 406.5,291.5C 403.15,291.665 399.817,291.498 396.5,291C 396.043,290.586 395.709,290.086 395.5,289.5C 396.677,283.572 397.344,277.572 397.5,271.5C 398.833,271.5 400.167,271.5 401.5,271.5C 401.802,256.471 401.468,241.471 400.5,226.5C 400.608,225.558 400.941,224.725 401.5,224C 402.938,223.781 404.271,223.281 405.5,222.5C 402.914,221.52 400.247,221.187 397.5,221.5C 397.5,220.5 397.5,219.5 397.5,218.5C 399.96,218.301 402.293,217.635 404.5,216.5C 401.398,214.817 398.064,214.151 394.5,214.5C 394.802,217.059 394.468,219.393 393.5,221.5C 393.5,218.833 393.5,216.167 393.5,213.5C 398.167,213.5 402.833,213.5 407.5,213.5C 407.5,238.167 407.5,262.833 407.5,287.5 Z"/></g>
<g><path style="opacity:1" fill="#186367" d="M 438.5,297.5 C 439.434,298.568 439.768,299.901 439.5,301.5C 431.981,301.825 424.648,301.492 417.5,300.5C 424.5,300.5 431.5,300.5 438.5,300.5C 438.5,299.5 438.5,298.5 438.5,297.5 Z"/></g>
<g><path style="opacity:1" fill="#deb33b" d="M 437.5,303.5 C 438.822,303.33 439.989,303.663 441,304.5C 443.421,308.071 445.587,311.738 447.5,315.5C 445.629,315.141 444.129,314.141 443,312.5C 441.098,310.116 439.931,307.449 439.5,304.5C 432.833,304.5 426.167,304.5 419.5,304.5C 419.674,306.861 420.007,309.194 420.5,311.5C 418.733,309.208 417.733,306.542 417.5,303.5C 424.167,303.5 430.833,303.5 437.5,303.5 Z"/></g>
<g><path style="opacity:1" fill="#fab70b" d="M 447.5,315.5 C 449.104,317.906 450.771,320.406 452.5,323C 451.899,325.637 450.233,326.804 447.5,326.5C 447.5,327.5 447.5,328.5 447.5,329.5C 447.167,329.5 446.833,329.5 446.5,329.5C 442.715,331.159 438.715,331.659 434.5,331C 432.984,329.103 432.317,326.936 432.5,324.5C 431.325,324.719 430.325,324.386 429.5,323.5C 426.344,320.83 424.177,317.496 423,313.5C 422.329,312.748 421.496,312.414 420.5,312.5C 420.5,312.167 420.5,311.833 420.5,311.5C 420.007,309.194 419.674,306.861 419.5,304.5C 426.167,304.5 432.833,304.5 439.5,304.5C 439.931,307.449 441.098,310.116 443,312.5C 444.129,314.141 445.629,315.141 447.5,315.5 Z"/></g>
<g><path style="opacity:1" fill="#ddb136" d="M 420.5,312.5 C 421.496,312.414 422.329,312.748 423,313.5C 424.177,317.496 426.344,320.83 429.5,323.5C 430.325,324.386 431.325,324.719 432.5,324.5C 432.317,326.936 432.984,329.103 434.5,331C 438.715,331.659 442.715,331.159 446.5,329.5C 445.035,330.737 443.368,331.737 441.5,332.5C 439.5,332.833 437.5,333.167 435.5,333.5C 429.285,327.418 424.285,320.418 420.5,312.5 Z"/></g>
<g><path style="opacity:1" fill="#d69c2e" d="M 447.5,315.5 C 451.352,317.925 455.019,320.591 458.5,323.5C 454.868,325.443 451.201,327.443 447.5,329.5C 447.5,328.5 447.5,327.5 447.5,326.5C 450.233,326.804 451.899,325.637 452.5,323C 450.771,320.406 449.104,317.906 447.5,315.5 Z"/></g>
<g><path style="opacity:1" fill="#605e5d" d="M 441.5,332.5 C 441.082,333.222 440.416,333.722 439.5,334C 445.534,341.189 452.867,346.689 461.5,350.5C 461.5,351.167 461.167,351.5 460.5,351.5C 450.566,347.702 442.232,341.702 435.5,333.5C 437.5,333.167 439.5,332.833 441.5,332.5 Z"/></g>
<g><path style="opacity:1" fill="#2f3032" d="M 461.5,350.5 C 465.944,352.444 470.611,353.444 475.5,353.5C 540.665,354.499 605.998,354.832 671.5,354.5C 606.669,355.499 541.669,355.832 476.5,355.5C 470.609,355.973 465.276,354.64 460.5,351.5C 461.167,351.5 461.5,351.167 461.5,350.5 Z"/></g>
<g><path style="opacity:1" fill="#191a1c" d="M 671.5,354.5 C 695.502,354.333 719.502,354.5 743.5,355C 742.5,355.333 741.5,355.667 740.5,356C 652.332,356.832 564.332,356.666 476.5,355.5C 541.669,355.832 606.669,355.499 671.5,354.5 Z"/></g>
</svg>
